<svg version="1.0" xmlns="http://www.w3.org/2000/svg"
 width="512.000000pt" height="512.000000pt" viewBox="0 0 512.000000 512.000000"
 preserveAspectRatio="xMidYMid meet">
<g transform="translate(0.000000,512.000000) scale(0.100000,-0.100000)"
fill="#000000" stroke="none">
<path d="M2295 4414 c-323 -59 -578 -187 -841 -421 -45 -39 -85 -69 -88 -66
-3 4 -6 17 -6 30 0 38 -26 78 -62 95 -18 9 -49 23 -68 32 -19 9 -46 23 -60 31
-29 17 -87 19 -123 6 -14 -5 -41 -24 -60 -41 -35 -30 -37 -31 -67 -15 -53 27
-120 30 -172 7 -25 -11 -53 -28 -64 -39 -10 -11 -40 -27 -66 -37 -51 -19 -86
-55 -95 -97 -4 -20 -14 -29 -42 -37 -20 -7 -50 -25 -66 -42 l-29 -31 425 3
c460 3 419 -1 499 55 30 22 24 11 -35 -67 -149 -196 -253 -410 -328 -680 -28
-99 -58 -273 -56 -325 2 -36 2 -36 34 145 56 313 184 612 363 845 68 89 69 90
115 93 53 3 58 12 23 40 l-25 19 47 45 c218 208 484 350 787 420 141 32 384
36 544 9 256 -44 513 -155 716 -310 98 -75 262 -240 336 -337 174 -232 329
-541 389 -774 19 -75 49 -264 50 -312 0 -14 -8 -18 -39 -18 l-40 0 -6 58 c-13
118 -37 229 -76 345 -46 143 -89 234 -159 342 -279 429 -696 745 -1115 846
-235 56 -535 42 -780 -37 -167 -54 -396 -192 -531 -319 -57 -54 -51 -51 76 33
187 124 435 229 644 274 147 31 400 31 540 -1 338 -77 706 -296 948 -564 80
-88 188 -224 188 -237 0 -4 15 -33 34 -64 74 -123 142 -334 171 -527 21 -149
22 -145 -22 -153 -21 -3 -48 -9 -60 -12 -23 -6 -23 -5 -23 75 0 91 -27 235
-69 368 -19 62 -25 98 -20 121 15 72 -15 134 -91 188 -28 20 -50 42 -50 50 0
7 -9 18 -19 23 -10 6 -55 53 -99 104 -172 201 -313 317 -497 407 -194 95 -405
140 -663 140 -281 0 -499 -55 -724 -181 -110 -63 -265 -178 -333 -249 -43 -45
-35 -41 50 29 330 272 620 383 1000 383 419 1 745 -126 1014 -393 64 -63 181
-200 181 -211 0 -3 -26 8 -57 24 -42 21 -70 28 -100 27 -35 -3 -47 2 -83 34
-161 146 -391 278 -587 336 -263 78 -568 66 -873 -36 -127 -42 -272 -115 -360
-182 -241 -181 -446 -510 -516 -826 -13 -58 -18 -134 -20 -273 l-3 -193 -58
-29 c-31 -16 -59 -27 -62 -24 -23 23 -27 317 -5 443 9 51 14 95 11 97 -3 3
-13 -28 -23 -68 -20 -86 -30 -311 -17 -415 9 -72 9 -72 -17 -83 -14 -6 -69
-12 -121 -13 -115 -2 -162 -22 -250 -106 -60 -58 -60 -58 -113 -53 -30 2 -71
-1 -92 -8 -82 -27 -160 -106 -171 -175 l-6 -35 247 0 246 0 6 -27 c3 -16 10
-46 16 -67 8 -34 7 -41 -8 -49 -38 -22 -104 -91 -115 -121 -9 -24 -23 -36 -55
-50 -47 -19 -90 -63 -100 -101 -3 -13 -18 -29 -34 -35 -52 -21 -90 -57 -136
-124 -24 -37 -44 -69 -44 -71 0 -3 137 -5 305 -5 l304 0 -49 -50 c-28 -27 -50
-53 -50 -58 0 -5 -21 -12 -46 -16 -96 -13 -184 -75 -220 -155 -21 -47 -37 -56
-133 -76 -41 -9 -77 -18 -80 -22 -3 -3 295 -2 664 3 369 5 839 7 1045 5 487
-6 1174 -4 1775 4 329 5 576 3 785 -5 337 -14 418 -11 235 9 -66 7 -129 14
-140 16 -25 5 -82 145 -59 145 24 0 15 28 -15 51 -26 19 -36 36 -42 74 -1 6
-8 19 -15 30 -8 11 -14 23 -14 27 0 5 102 8 226 8 l226 0 -4 64 c-5 81 -39
135 -107 173 -41 23 -53 37 -75 88 -69 160 -252 308 -426 346 -30 7 -56 13
-57 14 -1 0 4 21 11 45 l13 45 299 5 c320 5 330 7 353 58 28 60 -46 163 -126
178 -25 4 -47 17 -65 39 -32 38 -84 65 -125 65 -24 0 -31 7 -47 48 -24 56
-105 140 -164 166 -46 21 -47 23 -56 158 -12 172 -84 412 -186 625 -248 517
-718 895 -1265 1020 -142 32 -451 41 -580 17z m-1147 -325 c17 -6 37 -21 46
-33 10 -17 22 -22 39 -19 35 7 87 -40 87 -78 0 -24 -4 -29 -25 -29 -17 0 -25
-6 -25 -17 0 -9 -10 -27 -22 -40 l-21 -23 -339 0 -338 0 0 24 c0 37 45 84 88
92 24 5 47 19 67 41 48 55 132 65 195 24 37 -24 95 -22 106 3 11 24 70 66 94
66 9 0 31 -5 48 -11z m1602 -184 c111 -23 223 -62 325 -112 107 -53 297 -178
343 -226 l33 -33 -48 6 c-35 4 -70 21 -127 60 -165 111 -371 204 -521 234 -44
9 -121 26 -172 38 -76 18 -98 20 -135 11 -229 -58 -289 -77 -372 -116 -53 -25
-135 -72 -183 -104 -135 -91 -301 -265 -376 -393 -36 -63 -75 -96 -120 -104
l-38 -7 16 38 c55 131 178 280 380 463 75 67 34 42 -77 -47 -139 -113 -245
-243 -316 -390 -21 -43 -50 -91 -65 -107 -27 -29 -83 -183 -75 -207 2 -6 18
28 36 75 31 81 52 108 52 68 0 -10 6 -27 14 -37 12 -16 11 -24 -6 -57 -11 -21
-31 -92 -44 -159 -21 -101 -25 -145 -22 -254 l3 -133 -50 -5 c-27 -3 -57 -8
-66 -12 -15 -5 -18 7 -24 92 -17 256 44 516 176 749 140 244 298 409 499 517
136 74 378 146 555 167 100 12 317 4 405 -15z m-157 -84 c42 -26 65 -58 75
-108 6 -29 14 -38 35 -44 41 -11 57 -28 57 -60 0 -21 -5 -29 -17 -30 -109 -5
-640 5 -647 11 -5 5 -9 24 -9 41 0 36 27 63 57 55 12 -3 26 4 39 21 18 23 26
25 74 21 53 -5 54 -4 74 31 52 93 168 120 262 62z m-513 -99 c0 -4 -21 -18
-47 -31 -132 -63 -292 -195 -427 -351 l-48 -55 48 62 c98 131 251 261 404 347
73 40 70 39 70 28z m1090 -97 c30 -19 51 -35 45 -35 -12 0 -115 58 -115 65 0
11 17 3 70 -30z m-125 -5 c18 -8 18 -9 -5 -10 -14 0 -36 -7 -50 -14 -21 -12
-29 -12 -53 0 -15 8 -25 19 -22 24 8 12 102 12 130 0z m-355 -160 c109 -33
277 -120 230 -120 -6 0 -39 12 -73 26 -156 66 -211 77 -377 78 -136 1 -164 -2
-230 -22 -90 -29 -195 -80 -272 -134 -36 -26 -63 -38 -74 -34 -24 9 -6 26 91
91 98 66 173 100 274 126 106 26 322 21 431 -11z m748 2 c26 -18 28 -19 67 -1
22 10 50 19 63 19 42 0 90 -28 118 -69 23 -35 32 -41 62 -41 65 0 134 -74 134
-145 0 -47 -16 -70 -65 -94 -41 -20 -59 -21 -336 -21 l-293 0 -39 43 c-21 23
-52 57 -68 74 -18 20 -46 37 -75 45 -25 7 -46 17 -46 23 0 6 13 24 29 39 36
35 105 46 149 24 29 -15 29 -14 40 17 35 96 178 144 260 87z m-1364 -27 c-4
-8 -10 -12 -15 -9 -14 8 -10 24 6 24 9 0 12 -6 9 -15z m375 -165 c0 -26 -2
-31 -9 -20 -5 8 -9 49 -8 90 l1 75 7 -55 c5 -30 8 -71 9 -90z m-204 16 c14
-38 23 -71 20 -74 -3 -3 -7 -3 -8 -1 -8 9 -57 140 -57 151 0 25 20 -8 45 -76z
m501 12 c-30 -70 -65 -135 -66 -124 0 12 78 176 84 176 3 0 -5 -24 -18 -52z
m-915 -41 c19 -12 41 -37 49 -54 12 -26 21 -33 44 -33 55 0 97 -65 64 -98 -7
-7 -25 -12 -42 -12 -21 0 -37 -9 -57 -32 l-27 -33 -222 -3 c-235 -3 -254 0
-248 42 2 14 14 24 34 30 25 7 34 18 43 46 16 56 54 85 106 84 36 -1 45 3 56
23 33 62 136 83 200 40z m1284 -134 c88 -98 138 -184 169 -291 14 -49 14 -53
-1 -50 -10 2 -25 28 -38 68 -40 118 -97 213 -180 301 -27 29 -50 58 -51 66 -3
21 11 8 101 -94z m-1095 62 c18 -19 32 -37 29 -39 -2 -2 -21 13 -43 35 -21 21
-34 39 -29 39 5 0 24 -16 43 -35z m948 -21 c-33 -46 -108 -132 -91 -104 17 27
115 150 119 150 3 0 -10 -21 -28 -46z m-337 -46 c166 -61 295 -181 381 -353
37 -74 44 -108 10 -48 -102 179 -240 297 -422 359 -85 29 -282 27 -373 -5
-153 -52 -292 -179 -368 -336 -55 -112 -72 -204 -66 -338 6 -105 5 -107 -12
-85 -35 44 -41 67 -41 145 0 112 23 205 76 313 39 79 62 109 133 180 97 96
184 148 303 180 104 29 285 23 379 -12z m1325 -173 c16 -65 27 -143 31 -221
l6 -120 -37 -22 -36 -21 0 103 c0 114 -19 245 -52 349 -11 37 -19 69 -17 71 2
1 15 10 29 19 25 17 25 17 38 -20 7 -21 24 -83 38 -138z m-706 105 c0 -5 -4
-10 -10 -10 -5 0 -10 5 -10 10 0 6 5 10 10 10 6 0 10 -4 10 -10z m254 -43 c13
-28 33 -83 44 -120 l20 -68 -21 7 c-30 9 -31 10 -56 88 -12 37 -30 86 -40 107
l-19 39 24 0 c21 0 29 -10 48 -53z m202 3 c24 -78 44 -212 44 -287 0 -66 -2
-73 -20 -73 -15 0 -20 7 -20 26 0 57 -33 241 -55 311 l-23 74 30 -3 c27 -3 33
-9 44 -48z m143 -17 c31 -106 51 -237 51 -340 l0 -94 -52 39 -53 39 -8 89 c-7
80 -37 253 -53 312 -6 21 -3 22 44 22 l51 0 20 -67z m-910 -30 c137 -139 210
-290 233 -477 l11 -90 -29 -23 -29 -23 -7 106 c-13 208 -92 385 -238 532 -41
41 -56 62 -45 62 10 0 57 -39 104 -87z m-480 -45 c1 -21 -3 -38 -9 -38 -6 0
-10 32 -9 78 1 68 2 72 10 37 4 -22 8 -57 8 -77z m-210 -10 c16 -28 19 -38 8
-30 -19 16 -77 105 -77 118 1 13 41 -38 69 -88z m440 -2 c-23 -37 -44 -65 -46
-62 -2 2 14 34 37 71 24 36 44 64 47 62 2 -3 -15 -34 -38 -71z m467 65 c-9
-15 -116 -85 -121 -79 -3 3 23 24 57 46 66 44 72 47 64 33z m-1757 -21 c12 0
21 -3 21 -6 0 -3 -13 -42 -29 -87 -44 -125 -64 -232 -65 -339 -1 -84 -3 -98
-19 -102 -25 -6 -32 29 -31 159 1 107 20 237 50 342 14 47 18 52 34 43 10 -6
28 -10 39 -10z m121 -73 c-32 -81 -70 -254 -70 -315 0 -44 -16 -65 -27 -36
-11 30 15 196 47 293 35 109 46 131 64 131 10 0 7 -19 -14 -73z m120 56 c-1
-10 -7 -29 -15 -43 -8 -14 -14 -28 -15 -31 0 -3 30 -19 68 -34 37 -15 72 -32
77 -38 13 -12 -22 -2 -98 29 l-58 23 -10 -27 c-23 -58 -49 -211 -49 -289 0
-83 -3 -90 -29 -74 -11 7 -13 29 -8 109 10 173 77 392 118 392 12 0 19 -7 19
-17z m500 -64 c34 -39 58 -74 55 -78 -7 -6 -45 34 -107 112 -53 66 -11 39 52
-34z m1010 1 c0 -5 -4 -10 -10 -10 -5 0 -10 5 -10 10 0 6 5 10 10 10 6 0 10
-4 10 -10z m-557 -79 c110 -53 179 -158 185 -281 5 -96 -21 -169 -84 -239 -67
-74 -138 -106 -239 -106 -98 0 -153 23 -220 90 -70 70 -100 142 -100 240 0 67
4 89 28 137 33 68 119 150 179 172 63 23 190 17 251 -13z m337 5 c0 -8 -101
-79 -105 -74 -3 2 17 20 43 40 44 34 62 44 62 34z m627 -28 c37 -22 69 -63 78
-99 4 -17 16 -28 38 -35 18 -5 36 -19 42 -31 6 -15 18 -23 33 -23 30 0 78 -25
85 -45 6 -13 -26 -15 -279 -15 -190 0 -293 4 -307 11 -64 33 -77 115 -28 168
24 25 37 31 72 31 30 0 50 6 65 21 53 49 136 56 201 17z m-1582 -80 c41 -24
75 -46 75 -51 0 -10 -109 45 -140 72 -39 32 -16 25 65 -21z m955 -57 c-73 -30
-99 -33 -45 -6 28 14 59 25 70 24 11 0 1 -8 -25 -18z m1392 -89 c87 -38 172
-134 192 -214 6 -25 9 -26 32 -18 14 6 34 10 46 10 34 0 87 -31 105 -61 11
-19 26 -29 41 -29 48 0 124 -63 107 -90 -9 -14 -1505 -14 -1505 0 0 19 48 60
93 80 25 12 65 20 100 20 41 0 57 4 57 13 0 27 61 97 102 118 35 18 54 21 110
17 66 -5 69 -4 83 21 15 29 76 89 116 113 82 51 231 60 321 20z m-2313 -28 c2
-2 2 -7 -1 -10 -10 -9 -168 8 -168 18 0 9 159 1 169 -8z m1351 -38 c0 -20 -6
-24 -42 -29 -24 -3 -44 -4 -47 -2 -2 2 -1 16 3 30 5 21 12 25 46 25 35 0 40
-3 40 -24z m108 -5 c11 -6 7 -27 -18 -104 -30 -88 -52 -128 -66 -115 -2 3 6
39 20 79 13 41 28 91 31 112 8 39 11 42 33 28z m-1920 -97 c50 -25 106 -90
118 -139 4 -17 13 -20 58 -20 42 0 60 -5 89 -28 35 -26 67 -73 67 -97 0 -7
-155 -10 -490 -10 -435 0 -490 2 -490 15 0 29 47 65 84 65 27 0 39 7 55 29 25
34 80 56 122 47 26 -5 31 -1 48 32 27 53 97 112 146 125 58 14 142 6 193 -19z
m1430 -16 c45 -12 82 -27 82 -31 0 -5 -7 -6 -15 -3 -9 3 -44 13 -78 22 -60 15
-102 33 -82 34 6 0 47 -10 93 -22z m-918 -23 c0 -5 -127 -71 -167 -86 -55 -21
-7 15 70 52 78 38 97 44 97 34z m814 -73 c17 -11 53 -31 79 -46 27 -15 46 -30
44 -33 -5 -4 -144 71 -161 88 -16 15 5 10 38 -9z m-1986 -38 c28 -4 52 -8 52
-11 0 -14 -59 -52 -82 -53 -29 0 -88 -51 -88 -76 0 -11 -17 -14 -75 -14 -46 0
-87 -6 -103 -14 -71 -37 -244 -86 -303 -86 l-60 0 18 30 c40 69 144 110 230
92 47 -10 48 -10 76 23 15 18 40 36 56 40 17 3 31 14 34 25 3 10 20 28 38 40
35 22 64 22 207 4z m1267 -74 c-16 -16 -31 -28 -34 -25 -2 3 8 19 24 35 16 16
31 28 34 25 2 -3 -8 -19 -24 -35z m-158 -15 c62 -19 148 -93 174 -149 l18 -40
-37 -32 -37 -32 -35 26 c-19 14 -64 50 -99 80 -61 51 -65 57 -68 100 -4 69 1
72 84 47z m698 -22 c14 -21 25 -42 25 -48 0 -9 -9 3 -45 58 -26 41 -9 32 20
-10z m-450 -5 c35 -16 31 -29 -5 -15 -16 6 -30 15 -30 19 0 11 4 10 35 -4z
m110 -104 c-9 -35 -21 -64 -26 -64 -12 0 -12 3 7 68 23 84 25 90 31 73 3 -7
-2 -42 -12 -77z m232 -8 c-5 -13 -37 60 -37 83 0 9 9 -4 20 -28 12 -24 19 -49
17 -55z m-126 6 c1 -40 -1 -75 -4 -79 -4 -3 -7 31 -7 77 0 101 8 103 11 2z
m622 24 c34 -14 73 -27 87 -29 17 -3 12 -5 -15 -6 -56 -2 -112 -37 -153 -96
-21 -32 -46 -54 -66 -61 -17 -6 -55 -26 -85 -44 -51 -31 -54 -32 -84 -18 -28
13 -39 13 -82 1 -71 -19 -245 -18 -330 1 -74 18 -215 80 -215 96 0 5 8 13 18
18 60 32 141 20 196 -28 31 -28 40 -30 110 -30 58 0 76 3 76 14 0 22 68 76 96
76 16 0 44 16 72 41 114 100 233 121 375 65z m516 23 c69 -15 150 -60 208
-113 29 -26 53 -51 53 -55 0 -4 -14 -15 -31 -25 -17 -10 -46 -32 -65 -49 -34
-29 -36 -30 -77 -16 -89 30 -244 5 -286 -45 -11 -14 -38 -16 -175 -16 -180 0
-228 -9 -331 -63 -64 -34 -159 -123 -213 -200 -37 -53 -40 -53 68 -5 132 59
189 73 305 73 65 0 130 -6 158 -14 l49 -14 -24 -23 c-20 -21 -28 -22 -63 -14
-58 14 -124 12 -206 -5 -73 -16 -175 -63 -204 -95 -14 -16 -12 -17 44 -23 75
-8 158 -39 195 -74 46 -43 14 -39 -81 8 -81 42 -90 44 -167 43 -60 -1 -110
-10 -191 -35 -181 -54 -325 -44 -478 33 -22 11 -37 21 -35 24 3 2 43 -1 90 -7
127 -17 230 -1 337 52 73 36 100 58 211 169 103 103 140 134 200 163 40 21 81
37 90 37 11 0 20 10 24 25 10 40 62 67 119 62 45 -4 48 -3 69 32 85 144 241
209 407 170z m621 -23 c0 -7 -5 -27 -11 -44 -9 -27 -15 -30 -60 -34 -27 -1
-49 -2 -49 0 0 2 5 23 11 48 l11 44 49 0 c35 0 49 -4 49 -14z m-2408 -101 c92
-121 222 -248 323 -314 71 -46 192 -97 291 -122 30 -8 42 -15 35 -22 -14 -14
-117 8 -211 44 -91 35 -205 103 -280 168 -30 26 -80 64 -111 85 -69 46 -136
150 -104 162 13 5 12 10 -1 37 -9 18 -24 40 -33 51 -15 17 -15 18 0 15 9 -2
50 -49 91 -104z m77 16 c169 -175 371 -262 605 -260 67 0 127 6 151 15 l40 13
-38 -5 c-58 -8 -238 -5 -272 4 -34 10 35 17 270 28 l130 7 -24 -27 c-34 -36
-107 -56 -226 -63 -208 -12 -405 56 -575 198 -55 45 -160 169 -144 169 4 0 41
-35 83 -79z m-529 -42 c36 -16 82 -46 102 -66 33 -32 44 -37 89 -37 43 -1 55
-5 75 -29 13 -16 24 -34 24 -42 0 -10 17 -13 68 -12 51 1 79 -5 114 -22 52
-25 128 -101 128 -129 0 -14 13 -21 58 -30 54 -11 198 -85 232 -119 13 -14 8
-15 -50 -8 -36 3 -107 15 -159 26 -51 10 -116 21 -142 23 -39 3 -54 9 -71 31
-37 47 -72 55 -253 55 l-165 0 0 28 c0 33 -6 42 -47 71 -18 12 -33 30 -33 39
0 10 -7 28 -16 40 -13 19 -24 22 -81 22 -73 0 -103 -16 -103 -55 0 -32 -19
-45 -69 -45 -58 0 -110 -26 -136 -67 -20 -31 -22 -32 -105 -35 l-85 -3 52 -33
c52 -33 113 -94 113 -112 0 -6 -113 -11 -275 -12 -151 -2 -275 0 -275 3 0 14
49 49 75 55 21 4 35 16 45 37 19 41 74 77 116 77 28 0 33 4 39 29 9 41 72 110
119 132 23 10 62 19 87 19 39 0 47 4 57 24 6 14 28 43 48 66 107 118 273 149
424 79z m-472 -6 c-19 -21 -40 -47 -46 -58 -7 -13 -28 -23 -66 -31 l-55 -11
-14 61 -13 61 80 6 c45 3 97 6 116 7 l34 2 -36 -37z m3416 -53 c158 -49 302
-186 346 -329 15 -48 22 -57 46 -62 42 -8 68 -24 98 -60 47 -55 40 -59 -97
-59 l-124 0 -31 49 c-44 68 -165 179 -226 207 -60 28 -112 30 -164 8 -21 -10
-67 -17 -109 -18 -81 -1 -108 -18 -144 -88 -14 -27 -26 -38 -42 -38 -26 0 -86
-34 -107 -61 -15 -19 -16 -19 -70 2 -79 30 -203 24 -279 -15 -42 -22 -61 -26
-92 -21 l-39 7 15 28 c25 47 73 75 131 75 48 0 53 2 70 35 29 53 79 82 136 78
44 -3 49 -1 59 25 6 15 39 53 73 84 178 165 352 214 550 153z m-3064 -255 c0
-78 -3 -95 -15 -95 -12 0 -15 17 -15 95 0 78 3 95 15 95 12 0 15 -17 15 -95z
m1753 30 c-50 -13 -100 -28 -111 -34 -28 -15 -42 -13 -17 1 52 31 134 58 175
57 41 0 36 -2 -47 -24z m-567 -36 c51 -6 113 -9 138 -8 35 3 42 1 34 -8 -22
-27 -263 -6 -315 27 -15 9 -11 10 16 6 19 -4 76 -11 127 -17z m1666 -38 c36
-14 68 -55 75 -95 l6 -36 -126 0 c-139 0 -148 4 -123 63 32 75 89 98 168 68z
m-3014 -68 c-3 -51 -22 -68 -32 -28 -9 34 3 75 21 75 11 0 13 -11 11 -47z
m3192 -68 c0 -60 -3 -75 -15 -75 -12 0 -15 15 -15 75 0 60 3 75 15 75 12 0 15
-15 15 -75z m-2744 30 c154 -29 353 -151 434 -266 l19 -26 -87 0 c-48 0 -119
-6 -158 -13 -52 -9 -87 -10 -130 -3 -32 6 -76 8 -97 6 -29 -4 -43 -1 -60 15
-68 64 -200 81 -294 38 -59 -28 -124 -89 -152 -143 l-19 -38 47 3 c42 3 50 1
65 -23 10 -15 16 -29 13 -31 -2 -2 -139 -3 -303 -2 l-299 3 50 50 c51 51 103
75 163 75 24 0 35 7 51 34 24 38 38 46 85 46 27 0 38 8 66 46 73 102 261 207
418 234 73 12 104 11 188 -5z m1569 -20 l30 -15 -35 6 c-19 4 -57 10 -85 14
l-50 8 55 0 c30 1 69 -5 85 -13z m590 -100 c28 -12 67 -36 86 -53 33 -29 38
-30 67 -20 27 10 34 9 51 -7 24 -21 25 -31 8 -65 -12 -23 -11 -26 18 -35 25
-8 31 -16 33 -45 l3 -36 -131 1 c-71 0 -130 4 -130 9 0 4 7 5 16 2 9 -3 14 -2
12 2 -10 26 -64 122 -68 122 -4 0 -58 -96 -68 -122 -2 -4 5 -5 15 -1 10 3 16
3 13 0 -3 -3 -146 -8 -319 -12 -349 -6 -328 -11 -278 62 25 37 66 63 99 63 17
0 29 10 43 37 11 20 33 45 50 55 31 19 100 24 124 9 8 -5 30 1 60 18 95 53
201 59 296 16z m726 -110 c17 -55 34 -107 37 -115 2 -8 -10 2 -27 22 -17 20
-47 46 -65 58 l-34 21 26 59 c14 33 26 59 28 57 1 -1 17 -47 35 -102z m-213
62 c13 -12 30 -34 38 -49 10 -19 22 -28 39 -28 34 0 31 -13 -10 -59 -39 -43
-44 -61 -16 -61 25 0 34 -15 26 -41 -6 -17 -14 -20 -63 -17 l-57 3 -3 64 c-2
35 0 71 4 80 9 20 10 15 -21 85 l-26 59 33 -7 c17 -3 43 -16 56 -29z m-158 14
c0 -5 -10 -35 -22 -65 l-21 -57 -24 22 c-33 32 -31 74 5 93 31 17 62 20 62 7z
m-2692 -116 c36 -16 82 -52 82 -66 0 -19 -46 -16 -79 7 -19 13 -57 27 -83 30
-48 7 -53 18 -14 34 31 13 53 12 94 -5z m2742 -85 c0 -82 -3 -100 -15 -100
-12 0 -15 17 -15 93 0 52 3 97 7 100 18 19 23 -1 23 -93z m-1219 54 l54 -18
-55 -7 c-30 -3 -88 -18 -128 -33 -88 -31 -166 -34 -318 -9 -101 16 -129 33
-56 33 20 0 48 7 62 15 68 40 79 41 234 39 119 -1 166 -6 207 -20z m-794 -60
c40 -8 93 -26 118 -40 35 -18 62 -24 109 -24 37 0 87 -9 124 -21 60 -20 77
-21 385 -16 178 3 342 10 367 16 25 6 125 14 224 18 151 5 178 4 174 -8 -8
-25 -52 -39 -128 -39 -41 0 -131 -7 -200 -15 -108 -13 -253 -15 -1038 -9
l-913 7 23 23 c32 32 199 104 239 104 19 0 49 -4 66 -9 23 -7 46 -5 80 6 106
33 234 35 370 7z m2283 -49 c0 -60 -3 -75 -15 -75 -12 0 -15 15 -15 75 0 60 3
75 15 75 12 0 15 -15 15 -75z m-522 -27 c22 -22 13 -28 -41 -28 -41 0 -58 5
-72 20 -18 20 -17 20 41 20 33 0 65 -5 72 -12z"/>
<path d="M1191 2694 c0 -11 3 -14 6 -6 3 7 2 16 -1 19 -3 4 -6 -2 -5 -13z"/>
<path d="M3817 4311 c-32 -16 -78 -31 -103 -34 -25 -2 -53 -12 -63 -21 -10 -9
-30 -16 -45 -16 -24 0 -116 -45 -116 -56 0 -2 190 -4 422 -4 l421 0 -19 21
c-29 33 -71 50 -113 47 -22 -1 -45 3 -53 9 -7 6 -39 16 -71 22 -31 6 -77 22
-101 36 -54 32 -87 31 -159 -4z m154 -32 c6 -12 20 -19 39 -19 16 0 31 -4 34
-9 3 -4 16 -6 29 -4 14 3 40 -3 58 -13 22 -12 50 -17 80 -15 32 2 49 -2 58
-13 12 -15 -21 -16 -355 -16 -327 1 -367 2 -350 15 11 8 35 15 55 15 19 0 43
8 53 17 12 11 36 17 64 18 25 0 48 6 53 13 4 7 20 14 34 16 14 1 32 7 39 13
33 26 90 17 109 -18z"/>
<path d="M983 4303 c-29 -2 -53 -8 -53 -14 0 -11 247 -12 254 0 6 9 -81 22
-124 19 -14 -1 -49 -3 -77 -5z"/>
<path d="M1360 4290 c0 -6 47 -10 120 -10 73 0 120 4 120 10 0 6 -47 10 -120
10 -73 0 -120 -4 -120 -10z"/>
<path d="M3908 3974 c-16 -18 -14 -19 54 -16 77 4 81 18 8 28 -36 5 -48 2 -62
-12z"/>
<path d="M4396 3945 c-15 -8 -43 -15 -60 -15 -48 0 -76 -31 -76 -85 l0 -45
-62 0 c-35 0 -70 -5 -78 -10 -17 -11 409 -14 473 -4 46 8 46 30 0 59 -18 11
-32 26 -33 34 0 7 -15 28 -34 47 -38 38 -81 44 -130 19z m112 -37 c11 -13 25
-35 31 -50 6 -17 18 -28 30 -28 10 0 24 -7 31 -15 12 -14 -4 -15 -141 -13
l-153 3 -16 28 c-14 27 -14 29 13 53 19 16 36 23 48 19 10 -4 29 1 41 9 34 24
90 20 116 -6z"/>
<path d="M4196 3644 c-17 -12 -17 -14 -4 -14 9 0 19 -8 21 -17 4 -17 5 -17 6
0 1 10 10 17 24 18 20 1 20 2 2 6 -11 3 -22 9 -25 13 -3 5 -14 2 -24 -6z"/>
<path d="M805 3525 c-29 -13 -27 -14 45 -14 70 0 73 1 50 14 -31 18 -56 17
-95 0z"/>
<path d="M4404 3511 c-17 -11 -41 -17 -55 -14 -16 3 -31 -2 -43 -16 -11 -12
-29 -21 -40 -21 -28 0 -38 -8 -64 -51 -26 -43 -28 -65 -6 -73 29 -11 514 -7
514 5 0 24 -23 50 -65 75 -25 14 -45 32 -45 39 0 7 -16 27 -35 44 -29 25 -44
31 -83 31 -28 0 -59 -8 -78 -19z m143 -37 c14 -14 22 -31 19 -39 -3 -8 -1 -15
4 -15 4 0 22 -11 38 -25 16 -13 32 -22 35 -19 3 3 11 3 17 -1 30 -19 -29 -25
-237 -25 -152 0 -223 3 -223 11 0 6 12 26 26 45 19 24 34 34 54 34 16 0 30 7
34 15 3 10 19 15 44 15 22 0 45 6 51 14 7 9 32 14 62 14 41 1 56 -4 76 -24z"/>
<path d="M613 3415 c-17 -7 -36 -23 -43 -34 -7 -14 -21 -21 -40 -21 -18 0 -42
-11 -63 -30 -19 -16 -46 -30 -59 -30 -14 0 -37 -9 -51 -20 -14 -11 -30 -20
-35 -20 -5 0 -15 -7 -22 -15 -11 -13 24 -15 304 -15 299 0 316 1 316 18 0 24
-40 62 -66 62 -12 1 -26 15 -39 42 -34 70 -123 98 -202 63z m153 -49 c19 -19
34 -43 34 -55 0 -17 6 -21 29 -21 29 0 61 -22 61 -41 0 -5 -111 -9 -271 -9
-240 0 -270 2 -259 15 7 9 29 15 51 15 29 0 41 5 49 21 12 21 69 51 82 42 14
-8 47 8 53 26 8 25 42 40 94 40 36 1 48 -4 77 -33z"/>
<path d="M1187 3353 c-36 -57 -64 -114 -102 -210 -37 -91 -40 -131 -4 -47 12
27 47 104 79 172 32 67 57 122 54 122 -2 0 -14 -17 -27 -37z"/>
<path d="M4502 3130 c-12 -5 -25 -16 -28 -25 -4 -8 -16 -15 -28 -15 -29 0 -69
-42 -60 -63 5 -15 28 -17 193 -17 124 0 181 4 171 10 -8 5 -22 10 -31 10 -8 0
-25 13 -37 30 -12 16 -35 33 -50 36 -15 4 -38 15 -51 26 -26 20 -44 22 -79 8z
m79 -39 c7 -10 20 -16 29 -14 20 5 68 -32 57 -44 -13 -12 -237 -17 -250 -4
-16 16 12 43 40 38 13 -2 23 -1 23 4 0 36 81 53 101 20z"/>
<path d="M472 3003 c-24 -9 -50 -26 -59 -39 -8 -13 -21 -24 -29 -24 -7 0 -19
-8 -26 -18 -7 -10 -27 -24 -45 -31 -18 -7 -38 -19 -44 -27 -10 -12 31 -14 275
-14 157 0 286 3 286 8 -1 11 -56 69 -78 81 -12 6 -29 11 -39 11 -10 0 -31 7
-47 15 -15 8 -33 15 -38 15 -5 0 -21 9 -35 20 -29 23 -60 24 -121 3z m104 -28
c4 -8 17 -15 31 -15 16 0 27 -7 30 -20 4 -15 11 -18 33 -14 15 4 30 1 34 -4 3
-6 14 -8 24 -6 10 3 29 -7 46 -25 l30 -31 -247 0 c-136 0 -247 2 -247 6 0 3
16 12 35 20 19 8 35 19 35 25 0 7 11 9 25 7 19 -4 25 -1 25 12 0 24 26 43 49
37 12 -3 22 1 25 9 7 19 65 18 72 -1z"/>
<path d="M4460 2700 c0 -6 37 -10 91 -10 57 0 88 4 84 10 -3 6 -44 10 -91 10
-49 0 -84 -4 -84 -10z"/>
<path d="M750 2573 c0 -6 -8 -14 -17 -16 -17 -4 -17 -5 0 -6 9 0 17 -9 17 -18
1 -17 2 -17 13 -2 7 9 21 19 32 22 19 5 19 5 0 6 -12 0 -26 6 -33 13 -8 8 -12
9 -12 1z"/>
<path d="M543 2460 c-36 -15 -27 -20 30 -20 48 1 50 2 33 15 -22 17 -32 18
-63 5z"/>
<path d="M3370 870 c-180 -23 -373 -26 -1683 -22 -944 2 -979 1 -1035 -17 -32
-11 -150 -32 -262 -46 -113 -15 -207 -29 -209 -31 -2 -2 1069 -4 2380 -4 1492
0 2378 4 2368 10 -9 5 -54 16 -100 24 -65 11 -223 15 -711 18 -346 1 -628 6
-628 9 0 19 75 23 520 30 267 3 508 10 535 15 l50 8 -50 7 c-27 4 -270 9 -540
13 -444 5 -504 3 -635 -14z m-1462 -77 c-65 -2 -171 -2 -235 0 -65 1 -12 3
117 3 129 0 182 -2 118 -3z"/>
</g>
</svg>
